<svg version="1.1" xmlns="http://www.w3.org/2000/svg" viewBox="-6.01364861870163 -10.884443503691898 14.039123815487969 21.674796171616965" fill="none" stroke="black" stroke-width="0.6%" vector-effect="non-scaling-stroke">
    <path d="M 6.20736 9.7369 L 7.02547 9.71727" />
    <path d="M 7.02547 -0.11595 L 7.02547 9.71727" />
    <path d="M 6.20736 -0.09632 L 7.02547 -0.11595" />
    <path d="M 6.20736 -0.09632 L 6.20736 9.7369 Q 6.02 9.7 5.51294 9.70697 L 2.03719 9.79035 L 1.91843 9.62659 L 1.91843 -0.20663 L 5.35062 -0.28896 Q 6.49 -0.32 6.36244 -0.47554 Q 6.49 -0.32 6.34558 -0.51975 Q 6.23 -0.68 5.43625 -0.72097 L 1.61195 -0.62924 L 1.49383 -0.79212 L 6.4509 -0.91103" />
    <path d="M 1.91843 9.19663 L 1.61195 9.20398 L 1.49383 9.0411 L 1.49383 -0.79212" />
    <path d="M 6.50335 -0.18673 Q 6.92 -0.15 7.02547 -0.11595" />
    <path d="M 6.20736 -0.09632 Q 6.02 -0.13 5.51294 -0.12624 L 2.03719 -0.04286 L 1.91843 -0.20663" />
    <path d="M 6.56418 -0.75482 L 6.4509 -0.91103" />
    <path d="M 6.56418 -0.75482 L 6.26569 -0.74535 Q 7.02 -0.66 6.60777 -0.69472" />
    <path d="M 6.92336 -0.25953 L 6.60777 -0.69472" />
    <path d="M 6.92336 -0.25953 Q 7.29 -0.28 6.50335 -0.18673" />
    <path d="M 5.51294 9.70697 L 5.51294 -0.12624" />
    <path d="M 2.03719 9.79035 L 2.03719 -0.04286" />
    <path d="M 5.43625 -0.29132 L 5.43625 -0.72097" />
    <path d="M 1.61195 9.20398 L 1.61195 -0.62924" />
    <path d="M 6.56418 -0.70259 L 6.56418 -0.75482" />
    <path d="M 6.92336 -0.25953 L 6.92336 -0.13396" />
    <path d="M -4.16673 0.83832 L -4.44986 0.84511 L -4.44986 -8.9881 L -5.01365 -9.76553 L -0.05658 -9.88444" />
    <path d="M -4.44986 0.84511 L -5.01365 0.06769 L -5.01365 -9.76553" />
    <path d="M 0.06665 -9.71452 L -0.05658 -9.88444" />
    <path d="M 0.06665 -8.8808 L 0.06665 -9.71452 L -4.1304 -9.61384 L -3.68984 -9.00634 L -4.44986 -8.9881" />
    <path d="M -3.68984 -8.74584 L -3.68984 -9.00634" />
    <path d="M -3.58279 1.63686 Q -3.23 1.72 -3.63797 1.6251 Q -4.05 1.53 -4.14188 1.40563 Q -4.28 1.21 -4.16673 1.33884 L -4.16673 -8.49438 Q -4.28 -8.62 -3.62884 -8.75923 Q -2.98 -8.9 -1.75544 -8.92644 L -1.69251 -8.92795 Q -0.92 -8.95 -0.26811 -8.90613 Q 0.39 -8.87 0.73932 -8.78695" />
    <path d="M 1.08473 -8.31065 L 0.73932 -8.78695" />
    <path d="M 1.08473 -8.31065 L 1.08473 -7.90444" />
    <path d="M 1.08473 -8.31065 Q 1.43 -8.37 0.77593 -8.22711 Q 0.12 -8.09 -1.10716 -8.05967 L -1.17009 -8.05816 Q -1.93 -8.04 -2.58111 -8.07851 Q -3.23 -8.12 -3.63797 -8.20812 Q -4.05 -8.3 -4.14188 -8.42758 Q -4.28 -8.62 -4.16673 -8.49438" />
    <path d="M -1.68025 -8.76163 Q -2.55 -8.74 -3.02595 -8.65456 Q -3.5 -8.57 -3.42508 -8.48328 Q -3.5 -8.57 -3.4109 -8.44512 Q -3.32 -8.32 -2.73296 -8.26073 Q -2.15 -8.2 -1.18171 -8.2236 Q -0.32 -8.24 0.16093 -8.3315 Q 0.64 -8.42 0.56652 -8.50424 Q 0.64 -8.42 0.55251 -8.54199 Q 0.47 -8.66 -0.11626 -8.72391 Q -0.7 -8.79 -1.68025 -8.76163 Z" />
    <path d="M -2.98883 2.19221 L -3.46467 2.20363 L -3.46467 -7.62959 L -3.58279 -7.79247 L 1.37427 -7.91138" />
    <path d="M -3.46467 2.20363 L -3.58279 2.04075 L -3.58279 -7.79247" />
    <path d="M 1.49009 -7.75168 L 1.37427 -7.91138" />
    <path d="M 1.49009 -7.70782 L 1.49009 -7.75168 L 1.16678 -7.74248 Q 1.93 -7.68 1.52554 -7.70279" />
    <path d="M 1.7082 -7.45091 L 1.52554 -7.70279" />
    <path d="M 1.7082 -7.19972 L 1.7082 -7.45091 L 1.18539 -7.43837 Q 1.19 -7.48 1.18669 -7.45249 Q 1.19 -7.48 1.16117 -7.51931 Q 1.04 -7.68 0.25313 -7.71877 L -3.46467 -7.62959" />
    <path d="M 1.18539 -7.26123 L 1.18539 -7.43837" />
    <path d="M 0.25313 -7.30709 L 0.25313 -7.71877" />
    <path d="M -2.64806 3.2093 Q -2.79 3.27 -2.96259 3.0318 Q -3.1 2.84 -2.98883 2.96136 L -2.98883 -6.87186 Q -3.1 -7 -2.49166 -7.13339 Q -1.88 -7.27 -0.70877 -7.29978 L -0.54418 -7.30373 Q 0.24 -7.32 0.88684 -7.28296 Q 1.54 -7.24 1.91745 -7.16238" />
    <path d="M 2.24477 -6.71102 L 1.91745 -7.16238" />
    <path d="M 2.24477 -6.71102 L 2.24477 -6.35753" />
    <path d="M 2.24477 -6.71102 Q 2.59 -6.77 1.99074 -6.64704 Q 1.39 -6.53 0.13877 -6.49781 L -0.23398 -6.48886 L -0.70199 -7.13423 Q -1.47 -7.11 -1.89366 -7.02189 Q -2.31 -6.93 -2.24052 -6.85137 Q -2.31 -6.93 -2.22523 -6.81015 Q -2.16 -6.72 -1.9256 -6.66864 Q -1.69 -6.61 -1.33649 -6.57618 L -1.69034 -6.46647 Q -2.79 -6.56 -2.96259 -6.80142 Q -3.1 -7 -2.98883 -6.87186" />
    <path d="M -0.23398 -6.29807 L -0.23398 -6.48886" />
    <path d="M -0.70199 -6.28684 L -0.70199 -7.13423" />
    <path d="M -1.33649 -6.27162 L -1.33649 -6.57618" />
    <path d="M -1.69034 -6.26313 L -1.69034 -6.46647" />
    <path d="M 1.71839 -6.93431 Q 1.65 -7.03 1.20382 -7.09037 Q 0.76 -7.15 0.03766 -7.14659 L 0.38372 -6.6694 L 0.45149 -6.67102 Q 1.13 -6.69 1.4607 -6.76331 Q 1.79 -6.83 1.7319 -6.89814 Q 1.79 -6.83 1.71839 -6.93431 Z" />
    <path d="M 2.61002 -6.20737 L 2.49674 -6.36358" />
    <path d="M 2.61002 -6.15514 L 2.61002 -6.20737 L 2.31153 -6.1979 Q 3.07 -6.11 2.65361 -6.14726" />
    <path d="M 2.9692 -5.71208 L 2.65361 -6.14726" />
    <path d="M 2.9692 -5.71208 L 2.9692 -5.58651" />
    <path d="M 2.9692 -5.71208 Q 3.34 -5.73 2.54919 -5.63927 Q 2.96 -5.6 3.07365 -5.56805" />
    <path d="M 3.39474 -5.12529 L 3.07365 -5.56805" />
    <path d="M 3.39474 -5.12529 L 3.39474 -4.28368" />
    <path d="M 2.0179 -4.25065 L 2.0179 -4.99323 L -1.49174 -4.90904 L -1.60986 -5.07192 L 1.84653 -5.15483 Q 2.41 -5.17 2.65258 -5.22165 Q 2.9 -5.27 2.83693 -5.33431 Q 2.9 -5.27 2.81728 -5.38504 Q 2.75 -5.48 2.41039 -5.52845 Q 2.07 -5.58 1.55878 -5.57879 L -1.91698 -5.49541 L -2.03573 -5.65917 L 1.39645 -5.7415 Q 2.54 -5.77 2.40828 -5.92808 Q 2.54 -5.77 2.39141 -5.97229 Q 2.28 -6.13 1.48209 -6.17352 L -2.34221 -6.08178 L -2.46033 -6.24466 L 2.49674 -6.36358" />
    <path d="M 3.39474 -5.12529 Q 3.84 -5.04 2.0179 -4.99323" />
    <path d="M -1.49174 -3.70604 L -1.49174 -4.90904" />
    <path d="M -1.60986 -3.70321 L -1.60986 -5.07192" />
    <path d="M 1.55878 -5.14793 L 1.55878 -5.57879" />
    <path d="M -1.91698 -3.69584 L -1.91698 -5.49541" />
    <path d="M -2.03573 -3.69299 L -2.03573 -5.65917" />
    <path d="M 1.48209 -5.74386 L 1.48209 -6.17352" />
    <path d="M -2.34221 -3.68564 L -2.34221 -6.08178" />
    <path d="M -2.46033 -3.68281 L -2.46033 -6.24466" />
    <path d="M 4.11722 -4.12903 L 3.99463 -4.29807" />
    <path d="M 4.11722 -3.84059 L 4.11722 -4.12903 L -0.83984 -4.01011 L -0.96243 -4.17916 L 3.99463 -4.29807" />
    <path d="M -0.83984 -3.72168 L -0.83984 -4.01011" />
    <path d="M -0.96243 -3.71874 L -0.96243 -4.17916" />
    <path d="M 0.22818 6.76193 Q -0.29 6.71 -0.41502 6.54474 L -0.41502 -3.28847 Q -0.54 -3.46 -0.43903 -3.35254 Q -0.54 -3.46 -0.00784 -3.57593 L -2.52994 -3.51542 L -2.64806 -3.6783 L 4.32282 -3.84553" />
    <path d="M -0.41502 6.54474 Q -0.54 6.37 -0.43903 6.48067 L -0.43903 -3.35254" />
    <path d="M -0.43903 6.26763 L -2.52994 6.31779 L -2.52994 -3.51542" />
    <path d="M -2.52994 6.31779 L -2.64806 6.15491 L -2.64806 -3.6783" />
    <path d="M 4.79073 -3.2003 Q 5.14 -3.25 4.49991 -3.13272 Q 3.86 -3.02 2.59245 -2.9853 L 2.51016 -2.98332 Q 1.31 -2.95 0.51133 -3.0366 Q -0.29 -3.12 -0.41502 -3.28847" />
    <path d="M 4.79073 -3.2003 L 4.79073 -2.77776" />
    <path d="M 4.4335 -3.6929 L 4.32282 -3.84553" />
    <path d="M 4.4335 -3.6409 L 4.4335 -3.6929 L 4.13633 -3.68161 Q 4.89 -3.6 4.47667 -3.63337" />
    <path d="M 4.79073 -3.2003 L 4.47667 -3.63337" />
    <path d="M 2.4937 -3.14864 Q 3.38 -3.17 3.84291 -3.25088 Q 4.31 -3.33 4.23311 -3.41477 Q 4.31 -3.33 4.21941 -3.4516 Q 4.11 -3.6 3.33722 -3.65617 L 0.83448 -3.59613 Q 0.17 -3.51 0.26477 -3.39666 Q 0.17 -3.51 0.2802 -3.35531 Q 0.37 -3.24 0.92596 -3.18135 Q 1.49 -3.12 2.4937 -3.14864 Z" />
    <path d="M 3.33722 -3.18983 L 3.33722 -3.65617" />
    <path d="M 0.83448 -3.1914 L 0.83448 -3.59613" />
    <path d="M 0.87828 7.72689 Q 1.37 7.82 0.87244 7.72581 L 0.87244 -2.1074 Q 0.37 -2.2 0.25667 -2.36225 Q 0.17 -2.48 0.22818 -2.43834 Q 0.17 -2.48 0.3325 -2.5701 Q 0.49 -2.66 0.85463 -2.72281 Q 1.22 -2.78 1.68266 -2.79328 L 1.80078 -2.6304 Q 1.35 -2.62 1.13431 -2.54768 Q 0.91 -2.48 0.96952 -2.42775 Q 0.91 -2.48 0.98765 -2.37979 Q 1.05 -2.29 1.30097 -2.23637 Q 1.55 -2.19 1.89096 -2.19364 Q 2.25 -2.2 2.41884 -2.25692 Q 2.58 -2.31 2.63919 -2.43867 Q 2.69 -2.57 2.84535 -2.64336 Q 3 -2.72 3.25154 -2.76239 Q 3.51 -2.8 3.89436 -2.81319 Q 4.54 -2.83 5.05539 -2.74027 Q 5.57 -2.65 5.1348 -2.72586" />
    <path d="M 0.87244 7.72581 Q 0.37 7.63 0.25667 7.47096 L 0.25667 -2.36225" />
    <path d="M 0.25667 7.47096 Q 0.17 7.36 0.22818 7.39488 L 0.22818 -2.43834" />
    <path d="M 5.4832 -2.24543 Q 5.8 -2.34 5.41502 -2.22399 Q 5.03 -2.11 4.31179 -2.09496 L 4.19304 -2.25872 Q 4.56 -2.27 4.78601 -2.33072 Q 5.01 -2.39 4.96211 -2.44373 Q 5.01 -2.39 4.9485 -2.48018 Q 4.88 -2.57 4.63462 -2.61418 Q 4.39 -2.66 4.04153 -2.65101 Q 3.72 -2.64 3.58644 -2.59262 Q 3.46 -2.54 3.39405 -2.41647 Q 3.33 -2.29 3.17917 -2.21021 Q 3.03 -2.13 2.75954 -2.08594 Q 2.49 -2.04 2.07201 -2.03227 Q 1.37 -2.02 0.87244 -2.1074" />
    <path d="M 5.4832 -2.24543 L 5.4832 -1.90181" />
    <path d="M 4.31179 -1.87371 L 4.31179 -2.09496" />
    <path d="M 4.19304 -1.87086 L 4.19304 -2.25872" />
    <path d="M 1.80078 -2.1925 L 1.80078 -2.6304" />
    <path d="M 5.4832 -2.24543 L 5.1348 -2.72586" />
    <path d="M 1.49383 8.79029 L 1.31506 8.79458 L 1.31506 -1.03864 L 1.20268 -1.1936 L 1.7181 -1.20954 Q 1.03 -1.29 0.90091 -1.47389 Q 0.79 -1.63 0.87828 -1.53374 Q 0.79 -1.63 1.21918 -1.71756 Q 1.65 -1.81 2.60092 -1.83267 L 5.72813 -1.90768" />
    <path d="M 1.31506 8.79458 L 1.20268 8.63962 L 1.20268 -1.1936" />
    <path d="M 1.20268 8.52698 Q 1.03 8.54 0.90091 8.35932 L 0.90091 -1.47389" />
    <path d="M 0.90091 8.35932 Q 0.79 8.21 0.87828 8.29947 L 0.87828 -1.53374" />
    <path d="M 6.27212 -1.15755 L 1.31506 -1.03864" />
    <path d="M 6.27212 -0.90674 L 6.27212 -1.15755 L 6.154 -1.32043" />
    <path d="M 5.84625 -1.7448 L 5.72813 -1.90768" />
    <path d="M 5.84625 -1.31305 L 5.84625 -1.7448 L 2.74324 -1.67037 Q 1.55 -1.64 1.66772 -1.49844 Q 1.55 -1.64 1.68008 -1.46571 Q 1.82 -1.28 2.625 -1.23578 L 6.154 -1.32043" />
    <path d="M 6.34558 -0.43593 L 6.34558 -0.51975" />
    <path d="M 0.77593 -7.89703 L 0.77593 -8.22711" />
    <path d="M -1.10716 -7.85186 L -1.10716 -8.05967" />
    <path d="M -1.17009 -7.85035 L -1.17009 -8.05816" />
    <path d="M -2.58111 -7.8165 L -2.58111 -8.07851" />
    <path d="M -3.63797 1.6251 L -3.63797 -8.20812" />
    <path d="M -4.14188 1.40563 L -4.14188 -8.42758" />
    <path d="M -1.68025 -8.21719 L -1.68025 -8.76163" />
    <path d="M -3.02595 -8.29997 L -3.02595 -8.65456" />
    <path d="M 0.55251 -8.46826 L 0.55251 -8.54199" />
    <path d="M -0.11626 -8.29048 L -0.11626 -8.72391" />
    <path d="M 1.16117 -7.26329 L 1.16117 -7.51931" />
    <path d="M 1.99074 -6.35144 L 1.99074 -6.64704" />
    <path d="M 0.13877 -6.30701 L 0.13877 -6.49781" />
    <path d="M -1.89366 -6.6614 L -1.89366 -7.02189" />
    <path d="M -2.96259 3.0318 L -2.96259 -6.80142" />
    <path d="M 1.71839 -6.86418 L 1.71839 -6.93431" />
    <path d="M 1.20382 -6.72277 L 1.20382 -7.09037" />
    <path d="M 2.81728 -5.29045 L 2.81728 -5.38504" />
    <path d="M 2.41039 -5.18577 L 2.41039 -5.52845" />
    <path d="M 2.39141 -5.88848 L 2.39141 -5.97229" />
    <path d="M 4.49991 -2.8031 L 4.49991 -3.13272" />
    <path d="M 2.59245 -2.36469 L 2.59245 -2.9853" />
    <path d="M 2.51016 -2.29751 L 2.51016 -2.98332" />
    <path d="M 0.51133 -2.64552 L 0.51133 -3.0366" />
    <path d="M 4.21941 -3.37987 L 4.21941 -3.4516" />
    <path d="M 5.41502 -1.90017 L 5.41502 -2.22399" />
    <path d="M 4.9485 -2.40947 L 4.9485 -2.48018" />
    <path d="M 4.63462 -2.2971 L 4.63462 -2.61418" />
    <path d="M 4.04153 -1.86722 L 4.04153 -2.65101" />
    <path d="M 3.58644 -1.85631 L 3.58644 -2.59262" />
    <path d="M 3.39405 -1.85169 L 3.39405 -2.41647" />
    <path d="M 3.17917 -1.84654 L 3.17917 -2.21021" />
    <path d="M 2.75954 -1.83647 L 2.75954 -2.08594" />
    <path d="M 2.07201 -1.81209 L 2.07201 -2.03227" />
    <path d="M 1.13431 -2.28313 L 1.13431 -2.54768" />
    <path d="M 2.74324 -1.23861 L 2.74324 -1.67037" />
</svg>