<svg version="1.1" xmlns="http://www.w3.org/2000/svg" viewBox="-70.41754447896487 -36.50308589111285 187.73880448516348 88.2704373398891" fill="none" stroke="black" stroke-width="0.6%" vector-effect="non-scaling-stroke">
    <path d="M 60.14336 5.02005 L 53.80458 6.2285" />
    <path d="M -35.88572 23.32735 L -56.17786 27.19591 L 0.00004 41.00446 L 116.32126 18.82861 L 60.14336 5.02005" />
    <path d="M -56.17786 36.9588 L -56.17786 27.19591" />
    <path d="M -43.02457 24.68832 A 50.5 10.93184 360 0 1 -47.19542 20.33804" />
    <path d="M -47.19542 11.85489 A 12 2.59767 360 0 1 -47.24893 11.84212" />
    <path d="M -53.55729 26.69631 A 64 13.85422 360 0 1 -60.69542 20.33804 A 64 13.85422 360 0 1 -47.24893 11.84212" />
    <path d="M -47.33867 5.96258 L -47.33867 11.8672" />
    <path d="M -47.19542 5.99716 A 12 2.59767 360 0 1 -47.33867 5.96258 L -47.19542 5.93527" />
    <path d="M -60.69542 24.2432 A 64 13.85422 180 0 0 -56.17786 29.35597" />
    <path d="M -56.17786 36.9588 L 0.00004 50.76735 L 0.00004 41.00446" />
    <path d="M 0.00004 50.76735 L 116.32126 28.5915 L 116.32126 18.82861" />
    <path d="M -35.88572 23.32735 A 50.5 10.93184 180 0 0 53.80458 16.43289" />
    <path d="M -30.0717 -32.77515 A 50.5 10.93184 360 0 1 53.80458 -24.57124 L 53.80458 16.43289" />
    <path d="M 53.80458 -24.57124 A 50.5 10.93184 360 0 1 -47.19542 -24.57124 L -47.19542 20.33804" />
    <path d="M -47.19542 -24.57124 A 50.5 10.93184 360 0 1 -30.0717 -32.77515" />
    <path d="M -49.59005 12.53856 L -49.59005 -12.1577 L -47.19542 -12.61422" />
    <path d="M -69.41754 12.25736 L -69.41754 -17.03131 L -49.59005 -12.1577" />
    <path d="M -69.41754 12.25736 L -56.53433 15.42406" />
    <path d="M -47.19542 -21.26781 L -69.41754 -17.03131" />
    <path d="M -60.69542 20.33804 L -60.69542 24.2432" />
</svg>