<svg version="1.1" xmlns="http://www.w3.org/2000/svg" viewBox="-70.59496505405487 -36.42219800730067 188.20517015114046 88.27766490994648" fill="none" stroke="black" stroke-width="0.6%" vector-effect="non-scaling-stroke">
    <path d="M 60.60499 5.13356 L 54.12387 6.36277" />
    <path d="M -35.65241 23.3897 L -55.9928 27.24745 L 0.01241 41.09271 L 116.6102 18.97883 L 60.60499 5.13356" />
    <path d="M -55.9928 37.0102 L -55.9928 27.24745" />
    <path d="M -42.77117 24.73984 A 50.5 10.93491 360 0 1 -46.87613 20.42138" />
    <path d="M -53.33048 26.74251 A 64 13.8581 0 0 1 -60.37613 20.42138 A 64 13.8581 0 0 1 -46.87613 11.90817" />
    <path d="M -46.87613 1.14163 A 12 2.59839 360 0 1 -47.54029 0.96376 L -47.54029 12.09618" />
    <path d="M -60.37613 24.32648 A 64 13.8581 180 0 0 -55.9928 29.36687" />
    <path d="M -55.9928 37.0102 L 0.01241 50.85547 L 0.01241 41.09271" />
    <path d="M 0.01241 50.85547 L 116.6102 28.74158 L 116.6102 18.97883" />
    <path d="M -35.65241 23.3897 A 50.5 10.93491 180 0 0 54.12387 16.51628" />
    <path d="M -29.64982 -32.71301 A 50.5 10.93491 360 0 1 54.12387 -24.48729 L 54.12387 16.51628" />
    <path d="M 54.12387 -24.48729 A 50.5 10.93491 360 0 1 -46.87613 -24.48729 L -46.87613 20.42138" />
    <path d="M -46.87613 -24.48729 A 50.5 10.93491 360 0 1 -29.64982 -32.71301" />
    <path d="M -47.54029 0.96376 L -46.87613 0.8378" />
    <path d="M -49.82842 12.8 L -49.82842 -12.27013 L -46.87613 -12.83005" />
    <path d="M -69.59496 12.13157 L -69.59496 -17.15669 L -49.82842 -12.27013" />
    <path d="M -69.59496 12.13157 L -56.13315 15.45952" />
    <path d="M -46.87613 -21.39934 L -47.02765 -21.4368 L -69.59496 -17.15669" />
    <path d="M -60.37613 20.42138 L -60.37613 24.32648" />
</svg>