<svg version="1.1" xmlns="http://www.w3.org/2000/svg" viewBox="-70.41945132383748 -36.51305006956025 187.74121474706016 88.30744499083056" fill="none" stroke="black" stroke-width="0.6%" vector-effect="non-scaling-stroke">
    <path d="M 60.14169 5.00687 L 53.80471 6.21641" />
    <path d="M -35.88451 23.33539 L -56.17604 27.20843 L 0.00403 41.03204 L 116.32176 18.83049 L 60.14169 5.00687" />
    <path d="M -56.17604 36.97078 L -56.17604 27.20843" />
    <path d="M -43.01694 24.69675 A 50.5 10.94409 0 0 1 -47.19529 20.33785" />
    <path d="M -47.19529 11.84588 A 12 2.60058 0 0 1 -47.25014 11.83278" />
    <path d="M -53.54845 26.7069 A 64 13.86974 0 0 1 -60.69529 20.33785 A 64 13.86974 0 0 1 -47.25014 11.83278" />
    <path d="M -47.33988 5.95354 L -47.33988 11.85789" />
    <path d="M -47.19529 5.98847 A 12 2.60058 0 0 1 -47.33988 5.95354 L -47.19529 5.92594" />
    <path d="M -60.69529 24.24279 A 64 13.86974 180 0 0 -56.17604 29.36222" />
    <path d="M -56.17604 36.97078 L 0.00403 50.79439 L 0.00403 41.03204" />
    <path d="M 0.00403 50.79439 L 116.32176 28.59284 L 116.32176 18.83049" />
    <path d="M -35.88451 23.33539 A 50.5 10.94409 180 0 0 53.80471 16.43291" />
    <path d="M -30.07286 -32.78181 A 50.5 10.94409 0 0 1 53.80471 -24.56896 L 53.80471 16.43291" />
    <path d="M 53.80471 -24.56896 A 50.5 10.94409 0 0 1 -47.19529 -24.56896 L -47.19529 20.33785" />
    <path d="M -47.19529 -24.56896 A 50.5 10.94409 0 0 1 -30.07286 -32.78181" />
    <path d="M -49.59119 12.53003 L -49.59119 -12.16522 L -47.19529 -12.62253" />
    <path d="M -69.41945 12.24291 L -69.41945 -17.04414 L -49.59119 -12.16522" />
    <path d="M -69.41945 12.24291 L -56.52818 15.41492" />
    <path d="M -47.19529 -21.28607 L -69.41945 -17.04414" />
    <path d="M -60.69529 20.33785 L -60.69529 24.24279" />
</svg>