<svg version="1.1" xmlns="http://www.w3.org/2000/svg" viewBox="-71.89293053432424 -39.76676147786117 179.55381241436288 91.31960392648014" fill="none" stroke="black" stroke-width="0.6%" vector-effect="non-scaling-stroke">
    <path d="M -70.89293 21.7694 A 64 15.15493 180 0 0 -61.67545 29.60471" />
    <path d="M -59.61929 26.47311 A 64 15.15493 0 0 1 -70.89293 17.88316 A 64 15.15493 0 0 1 -57.39293 8.57329" />
    <path d="M -61.67545 36.70207 L -61.67545 26.98648 L -0.00187 40.83725 L 106.66088 14.20634 L 44.9873 0.35557 L 43.60707 0.70018" />
    <path d="M -43.06822 22.34074 L -61.67545 26.98648" />
    <path d="M -50.06419 24.08745 A 50.5 11.95819 0 0 1 -57.39293 17.88316" />
    <path d="M -61.67545 36.70207 L -0.00187 50.55284 L -0.00187 40.83725" />
    <path d="M -0.00187 50.55284 L 106.66088 23.92194 L 106.66088 14.20634" />
    <path d="M -43.06822 22.34074 A 50.5 11.95819 180 0 0 43.60707 13.99692" />
    <path d="M -43.53429 -35.03756 A 50.5 11.95819 360 0 1 43.60707 -26.80857 L 43.60707 13.99692" />
    <path d="M 43.60707 -26.80857 A 50.5 11.95819 360 0 1 -57.39293 -26.80857 L -57.39293 17.88316" />
    <path d="M -57.39293 -26.80857 A 50.5 11.95819 360 0 1 -43.53429 -35.03756" />
    <path d="M -70.89293 17.88316 L -70.89293 21.7694" />
</svg>