<svg version="1.1" xmlns="http://www.w3.org/2000/svg" viewBox="-70.59035337645643 -36.39951358846604 188.19929643330423 88.19265215831493" fill="none" stroke="black" stroke-width="0.6%" vector-effect="non-scaling-stroke">
    <path d="M 60.60893 5.16358 L 54.12353 6.39024" />
    <path d="M -35.65533 23.37106 L -55.99717 27.21852 L 0.00284 41.02915 L 116.60894 18.97421 L 60.60893 5.16358" />
    <path d="M -55.99717 36.98251 L -55.99717 27.21852" />
    <path d="M -42.78876 24.72028 A 50.5 10.90677 360 0 1 -46.87647 20.4216" />
    <path d="M -53.3509 26.71801 A 64 13.82245 360 0 1 -60.37647 20.4216 A 64 13.82245 360 0 1 -46.87647 11.9303" />
    <path d="M -47.53735 5.86616 L -47.53735 12.11688" />
    <path d="M -46.87647 6.04279 A 12 2.59171 360 0 1 -47.53735 5.86616 L -46.87647 5.74116" />
    <path d="M -60.37647 24.3272 A 64 13.82245 180 0 0 -55.99717 29.35239" />
    <path d="M -55.99717 36.98251 L 0.00284 50.79314 L 0.00284 41.02915" />
    <path d="M 0.00284 50.79314 L 116.60894 28.7382 L 116.60894 18.97421" />
    <path d="M -35.65533 23.37106 A 50.5 10.90677 180 0 0 54.12353 16.51601" />
    <path d="M -29.64706 -32.69788 A 50.5 10.90677 360 0 1 54.12353 -24.49274 L 54.12353 16.51601" />
    <path d="M 54.12353 -24.49274 A 50.5 10.90677 360 0 1 -46.87647 -24.49274 L -46.87647 20.4216" />
    <path d="M -46.87647 -24.49274 A 50.5 10.90677 360 0 1 -29.64706 -32.69788" />
    <path d="M -49.82564 12.81881 L -49.82564 -12.25261 L -46.87647 -12.81042" />
    <path d="M -69.59035 12.16501 L -69.59035 -17.12695 L -49.82564 -12.25261" />
    <path d="M -69.59035 12.16501 L -56.14732 15.48031" />
    <path d="M -46.87647 -21.35989 L -47.02143 -21.39564 L -69.59035 -17.12695" />
    <path d="M -60.37647 20.4216 L -60.37647 24.3272" />
</svg>