<svg version="1.1" xmlns="http://www.w3.org/2000/svg" viewBox="-10.958677713851118 -12.391881664733896 21.94847629200878 28.255072418391382" fill="none" stroke="black" stroke-width="0.6%" vector-effect="non-scaling-stroke">
    <path d="M -9.95868 0.12221 L 0.03112 14.86319 L 0.03112 4.95414 L 9.9898 4.83194 L 4.78127 -2.85379" />
    <path d="M -4.48974 -1.71686 L 0.03112 4.95414" />
    <path d="M -4.48974 -1.71686 L -4.48974 3.23766 L -4.52086 3.23805 L -4.6029 3.11699 L -4.6029 -6.79205 L 2.68133 -6.88144 L 2.75627 -6.77086 L 2.17674 -6.75781 Q 2.91 -6.69 2.99675 -6.5607 Q 3.08 -6.43 3.00671 -6.53191 Q 3.08 -6.43 2.41875 -6.35006 Q 1.75 -6.27 0.48026 -6.25139 L 0.3976 -6.25038 Q -0.8 -6.24 -1.58784 -6.30057 Q -2.37 -6.37 -2.45779 -6.49179 Q -2.55 -6.62 -2.46962 -6.52583 Q -2.55 -6.62 -1.98743 -6.70209 L -4.52086 -6.671 L -4.6029 -6.79205" />
    <path d="M -9.95868 -9.78684 L -4.6029 -1.88383" />
    <path d="M -9.95868 0.12221 L -9.95868 -9.78684" />
    <path d="M 0.03112 14.86319 L 9.9898 14.74098 L 9.9898 4.83194" />
    <path d="M -5.62159 -9.84006 L -9.95868 -9.78684" />
    <path d="M -4.48974 -1.71686 L -2.46962 -1.74165" />
    <path d="M -2.46962 -1.5713 C -2.47 -1.57 -2.47 -1.56 -2.4666 -1.55432 C -2.46 -1.55 -2.46 -1.54 -2.45779 -1.53726 C -2.46 -1.53 -2.45 -1.53 -2.44899 -1.52636 C -2.45 -1.52 -2.44 -1.52 -2.43735 -1.51554 C -2.43 -1.51 -2.43 -1.51 -2.42278 -1.50483 C -2.42 -1.5 -2.41 -1.5 -2.40518 -1.49425 C -2.4 -1.49 -2.39 -1.49 -2.38591 -1.48447 C -2.38 -1.48 -2.37 -1.48 -2.36386 -1.47484 C -2.36 -1.47 -2.35 -1.47 -2.33898 -1.46536 C -2.33 -1.46 -2.32 -1.46 -2.31125 -1.45605 C -2.3 -1.45 -2.29 -1.45 -2.28065 -1.44692 C -2.27 -1.44 -2.26 -1.44 -2.24717 -1.438 C -2.24 -1.44 -2.22 -1.43 -2.21085 -1.4293 C -2.2 -1.43 -2.2 -1.43 -2.19162 -1.42503 C -2.19 -1.42 -2.18 -1.42 -2.1717 -1.42082 C -2.16 -1.42 -2.15 -1.42 -2.13344 -1.41328 C -2.12 -1.41 -2.11 -1.41 -2.09292 -1.40594 C -2.08 -1.4 -2.06 -1.4 -2.05019 -1.39883 C -2.04 -1.4 -2.02 -1.39 -2.00532 -1.39195" />
    <path d="M -5.05833 -5.3919 C -5.06 -5.39 -5.06 -5.38 -5.05523 -5.37429 C -5.05 -5.37 -5.05 -5.36 -5.04615 -5.35665 C -5.04 -5.35 -5.04 -5.35 -5.03906 -5.34739 C -5.04 -5.34 -5.03 -5.34 -5.03036 -5.3382 C -5.03 -5.34 -5.02 -5.33 -5.02001 -5.32907 C -5.02 -5.33 -5.01 -5.32 -5.00798 -5.32 C -5 -5.32 -5 -5.31 -4.99425 -5.31101 C -4.99 -5.31 -4.98 -5.31 -4.9788 -5.30211 C -4.97 -5.3 -4.97 -5.3 -4.9616 -5.29328 C -4.96 -5.29 -4.95 -5.29 -4.94263 -5.28455 C -4.94 -5.28 -4.93 -5.28 -4.92189 -5.27592 C -4.91 -5.27 -4.91 -5.27 -4.89935 -5.26739 C -4.89 -5.26 -4.88 -5.26 -4.87501 -5.25897 C -4.87 -5.26 -4.86 -5.25 -4.84887 -5.25067 C -4.84 -5.25 -4.83 -5.25 -4.82093 -5.24249 C -4.81 -5.24 -4.8 -5.24 -4.79119 -5.23443 C -4.78 -5.23 -4.77 -5.23 -4.75967 -5.2265 C -4.75 -5.22 -4.74 -5.22 -4.72637 -5.21871 C -4.71 -5.22 -4.7 -5.21 -4.67868 -5.20842 C -4.66 -5.21 -4.65 -5.2 -4.62784 -5.1984" />
    <path d="M -4.62784 -4.8841 L -4.6029 -4.84729" />
    <path d="M -2.00532 -0.88928 C -2.01 -0.88 -2 -0.88 -2.00175 -0.86917 C -2 -0.86 -2 -0.86 -1.99129 -0.8489 C -1.99 -0.84 -1.98 -0.84 -1.9774 -0.83169 C -1.97 -0.83 -1.97 -0.82 -1.95899 -0.81467 C -1.95 -0.81 -1.94 -0.8 -1.93579 -0.79788 C -1.93 -0.79 -1.92 -0.79 -1.90757 -0.78135 C -1.9 -0.78 -1.89 -0.77 -1.87407 -0.76512 C -1.87 -0.76 -1.86 -0.76 -1.85527 -0.75713 C -1.85 -0.75 -1.84 -0.75 -1.83507 -0.74923 C -1.83 -0.75 -1.82 -0.74 -1.81343 -0.74143 C -1.81 -0.74 -1.8 -0.74 -1.79034 -0.73374 C -1.78 -0.73 -1.77 -0.73 -1.76578 -0.72616 C -1.76 -0.72 -1.75 -0.72 -1.73973 -0.71869 C -1.73 -0.72 -1.71 -0.71 -1.69853 -0.7079 C -1.68 -0.7 -1.67 -0.7 -1.65403 -0.69741 C -1.64 -0.69 -1.62 -0.69 -1.6062 -0.68722 C -1.6 -0.69 -1.59 -0.68 -1.58105 -0.68226 C -1.57 -0.68 -1.56 -0.68 -1.55507 -0.67737" />
    <path d="M -1.30427 0.02018 L -1.22622 0.13535 L -1.10206 0.13382" />
    <path d="M -1.55507 -0.22071 C -1.56 -0.22 -1.55 -0.21 -1.5522 -0.20474 C -1.55 -0.2 -1.55 -0.2 -1.54869 -0.19672 C -1.55 -0.19 -1.55 -0.19 -1.54386 -0.18867 C -1.54 -0.19 -1.54 -0.18 -1.53637 -0.17883 C -1.53 -0.18 -1.53 -0.17 -1.52724 -0.16905 C -1.52 -0.16 -1.51 -0.16 -1.50374 -0.1497 C -1.5 -0.15 -1.49 -0.14 -1.48926 -0.14015 C -1.48 -0.14 -1.48 -0.13 -1.47286 -0.13069 C -1.47 -0.13 -1.46 -0.12 -1.45447 -0.12134 C -1.45 -0.12 -1.44 -0.12 -1.43405 -0.1121 C -1.43 -0.11 -1.42 -0.1 -1.40647 -0.10107 C -1.4 -0.1 -1.39 -0.09 -1.3757 -0.09026 C -1.36 -0.09 -1.35 -0.08 -1.34165 -0.07967 C -1.34 -0.08 -1.33 -0.08 -1.32338 -0.07448 C -1.32 -0.07 -1.31 -0.07 -1.30427 -0.06935" />
    <path d="M -1.10206 0.31856 L -1.02002 0.43962 L -0.80717 0.437" />
    <path d="M -0.80717 0.7537 L -0.72469 0.87541 L -0.5114 0.87279" />
    <path d="M -0.5114 1.19014 L -0.42936 1.3112 L 3.09605 1.26794 C 3.11 1.27 3.13 1.27 3.14487 1.26719 C 3.16 1.27 3.18 1.27 3.19356 1.26636 C 3.21 1.27 3.23 1.27 3.24211 1.26544 C 3.26 1.27 3.27 1.26 3.29051 1.26442 C 3.31 1.26 3.32 1.26 3.33875 1.26332 C 3.35 1.26 3.37 1.26 3.3868 1.26211 C 3.4 1.26 3.42 1.26 3.43466 1.2608 C 3.45 1.26 3.47 1.26 3.48228 1.25939 C 3.5 1.26 3.51 1.26 3.52966 1.25787 C 3.55 1.26 3.56 1.26 3.57677 1.25623 C 3.59 1.26 3.61 1.26 3.62358 1.25448 C 3.64 1.25 3.65 1.25 3.67006 1.25261 C 3.69 1.25 3.7 1.25 3.71618 1.25061 C 3.73 1.25 3.75 1.25 3.76191 1.24848 C 3.78 1.25 3.79 1.25 3.80721 1.24621 C 3.82 1.25 3.84 1.24 3.85204 1.24381 C 3.87 1.24 3.9 1.24 3.91832 1.23994 C 3.94 1.24 3.96 1.24 3.9833 1.23574 C 4 1.23 4.03 1.23 4.0468 1.23119 C 4.07 1.23 4.09 1.23 4.10865 1.22629 C 4.13 1.22 4.15 1.22 4.17684 1.22026 C 4.2 1.22 4.22 1.22 4.24234 1.21375 C 4.25 1.21 4.26 1.21 4.27473 1.21024 C 4.29 1.21 4.3 1.21 4.3063 1.2066 C 4.32 1.21 4.33 1.2 4.337 1.20283 C 4.35 1.2 4.36 1.2 4.3668 1.19894 C 4.39 1.2 4.41 1.19 4.42357 1.1908 C 4.44 1.19 4.46 1.19 4.47633 1.18219 C 4.57 1.17 4.64 1.15 4.69139 1.127 C 4.76 1.1 4.78 1.07 4.78127 1.04425 L 4.78127 -3.91027 Q 4.93 -3.71 3.09605 -3.68659 L -0.42936 -3.64333 L -0.5114 -3.76438 L 2.96052 -3.80698 Q 3.52 -3.81 3.78069 -3.85202 Q 4.04 -3.89 3.99122 -3.9442 Q 4.04 -3.89 3.98136 -3.97192 Q 3.94 -4.04 3.60648 -4.08014 Q 3.28 -4.12 2.76668 -4.12196 L -0.72469 -4.07912 L -0.80717 -4.20082 L 2.64044 -4.24313 Q 3.79 -4.26 3.69398 -4.38451 Q 3.79 -4.26 3.68558 -4.40837 Q 3.6 -4.53 2.82146 -4.56205 L -1.02002 -4.51491 L -1.10206 -4.63596 L 4.15931 -4.70053 L 4.23691 -4.58602 L 3.65561 -4.57558 Q 4.39 -4.51 4.47873 -4.37389 Q 4.58 -4.23 4.48986 -4.34208 Q 4.58 -4.23 3.76965 -4.16132 Q 4.17 -4.13 4.44465 -4.0769 Q 4.72 -4.02 4.76874 -3.94596 Q 4.93 -3.71 4.78127 -3.91027" />
    <path d="M -5.62159 -6.35048 L -5.23003 -5.77269 L -5.05833 -5.7748" />
    <path d="M -4.52086 3.23805 L -4.52086 -6.671" />
    <path d="M 2.75627 -6.67353 L 2.75627 -6.77086" />
    <path d="M -2.55141 -10.66706 L -2.4882 -10.66783 Q -1.72 -10.68 -1.06977 -10.644 Q -0.42 -10.61 -0.03953 -10.54184 Q 0.35 -10.47 0.40884 -10.37943 Q 0.51 -10.23 0.42113 -10.34389 Q 0.51 -10.23 -0.17661 -10.13637 Q -0.86 -10.04 -2.09517 -10.02277 L -2.15839 -10.022 Q -2.93 -10.01 -3.56377 -10.04467 Q -4.2 -10.08 -4.59113 -10.1462 Q -4.98 -10.22 -5.04615 -10.31117 Q -5.14 -10.46 -5.05833 -10.34642 Q -5.14 -10.46 -4.46025 -10.55357 Q -3.78 -10.65 -2.55141 -10.66706 Z" />
    <path d="M 0.05825 -9.41729 L 0.05825 -9.55106 Q 0.07 -9.58 0.06464 -9.57493 Q 0.07 -9.58 0.05193 -9.61102 Q -0.03 -9.73 -0.8113 -9.7634 L -4.54581 -9.71757 L -4.62784 -9.83862 L 0.63353 -9.90319 L 0.71335 -9.78541 L 0.10685 -9.77598 Q 0.85 -9.73 0.92634 -9.61582 Q 0.95 -9.58 0.93354 -9.59602 Q 0.95 -9.58 0.89462 -9.56132 L 0.05825 -9.55106" />
    <path d="M 0.89462 -9.31242 L 0.89462 -9.56132" />
    <path d="M 0.71335 -9.70459 L 0.71335 -9.78541" />
    <path d="M -4.62784 -4.8841 L -4.62784 -9.83862" />
    <path d="M -4.54581 -6.79275 L -4.54581 -9.71757" />
    <path d="M -0.8113 -9.45718 L -0.8113 -9.7634" />
    <path d="M -4.22711 -9.1026 Q -4.32 -9.25 -4.23999 -9.13983 Q -4.32 -9.25 -3.68322 -9.34548 Q -3.04 -9.44 -1.865 -9.45884 L -1.69967 -9.46087 Q -0.92 -9.47 -0.27439 -9.43779 Q 0.37 -9.41 0.76468 -9.33705 Q 1.16 -9.27 1.21856 -9.18461 Q 1.31 -9.05 1.23076 -9.14951 Q 1.31 -9.05 0.6881 -8.96169 Q 0.06 -8.88 -1.19534 -8.86138 L -1.56976 -8.85679 L -1.89481 -9.33642 Q -2.67 -9.32 -3.11034 -9.25981 Q -3.55 -9.2 -3.49591 -9.12677 Q -3.55 -9.2 -3.48842 -9.10507 Q -3.44 -9.04 -3.22031 -8.99884 Q -3 -8.96 -2.6521 -8.9273 L -3.0299 -8.8481 Q -4.11 -8.92 -4.22711 -9.1026 Z" />
    <path d="M -3.0299 -8.69833 L -3.0299 -8.8481" />
    <path d="M -2.6521 -8.70297 L -2.6521 -8.9273" />
    <path d="M -1.89481 -8.71226 L -1.89481 -9.33642" />
    <path d="M -1.56976 -8.71625 L -1.56976 -8.85679" />
    <path d="M 1.49069 -8.54057 L 1.49069 -8.63835 L 0.9094 -8.62791 Q 1.64 -8.56 1.73251 -8.42622 Q 1.83 -8.28 1.74364 -8.39441 Q 1.83 -8.28 1.02343 -8.21365 Q 1.43 -8.18 1.69843 -8.12923 Q 1.97 -8.08 2.02252 -7.99829 Q 2.18 -7.77 2.03505 -7.9626 Q 2.18 -7.77 0.34983 -7.73892 L -3.17558 -7.69566 L -3.25762 -7.81671 L 0.2143 -7.85932 Q 0.78 -7.87 1.03447 -7.90435 Q 1.29 -7.94 1.245 -7.99653 Q 1.29 -7.94 1.23514 -8.02425 Q 1.19 -8.09 0.86026 -8.13247 Q 0.53 -8.17 0.02046 -8.17429 L -3.47091 -8.13145 L -3.55339 -8.25316 L -0.10578 -8.29546 Q 1.04 -8.31 0.94776 -8.43684 Q 1.04 -8.31 0.93936 -8.4607 Q 0.86 -8.58 0.07524 -8.61438 L -3.76624 -8.56724 L -3.84828 -8.68829 L 1.41309 -8.75286 L 1.49069 -8.63835" />
    <path d="M -3.84828 -6.80131 L -3.84828 -8.68829" />
    <path d="M -3.76624 -6.80232 L -3.76624 -8.56724" />
    <path d="M 0.07524 -8.29872 L 0.07524 -8.61438" />
    <path d="M -3.55339 -6.80493 L -3.55339 -8.25316" />
    <path d="M -3.47091 -6.80595 L -3.47091 -8.13145" />
    <path d="M 0.02046 -7.85694 L 0.02046 -8.17429" />
    <path d="M -3.25762 -6.80856 L -3.25762 -7.81671" />
    <path d="M -3.17558 -6.80957 L -3.17558 -7.69566" />
    <path d="M 0.34983 -7.19196 L 0.34983 -7.73892" />
    <path d="M -0.39559 -5.66993 Q -0.03 -5.67 0.14585 -5.71385 Q 0.32 -5.75 0.40618 -5.84703 Q 0.49 -5.94 0.6574 -5.99724 Q 0.83 -6.05 1.08956 -6.08304 Q 1.35 -6.11 1.74309 -6.11712 Q 2.39 -6.13 2.88707 -6.05693 Q 3.38 -5.99 3.46192 -5.8743 Q 3.54 -5.75 3.47543 -5.83552 Q 3.54 -5.75 3.13234 -5.67331 Q 2.72 -5.59 2.00149 -5.58389 L 1.91901 -5.70559 Q 2.29 -5.71 2.52741 -5.75561 Q 2.77 -5.8 2.72949 -5.84593 Q 2.77 -5.8 2.7228 -5.86523 Q 2.68 -5.93 2.43878 -5.96599 Q 2.2 -6 1.8543 -5.99642 Q 1.53 -5.99 1.38668 -5.95572 Q 1.24 -5.92 1.15553 -5.82653 Q 1.07 -5.73 0.89524 -5.67522 Q 0.72 -5.62 0.4485 -5.58561 Q 0.17 -5.55 -0.25034 -5.54965 Q -0.96 -5.54 -1.43234 -5.61168 Q -1.91 -5.68 -1.99129 -5.80342 Q -2.05 -5.89 -2.00532 -5.8438 Q -2.05 -5.89 -1.8696 -5.95666 Q -1.69 -6.02 -1.31415 -6.06673 Q -0.94 -6.11 -0.47123 -6.11436 L -0.38919 -5.9933 Q -0.84 -5.98 -1.07339 -5.93575 Q -1.31 -5.89 -1.26601 -5.8381 Q -1.31 -5.89 -1.25704 -5.81243 Q -1.21 -5.74 -0.97566 -5.70471 Q -0.74 -5.67 -0.39559 -5.66993 Z" />
    <path d="M -0.38919 -5.67001 L -0.38919 -5.9933" />
    <path d="M 1.91901 -5.41991 L 1.91901 -5.70559" />
    <path d="M 2.00149 -5.42092 L 2.00149 -5.58389" />
    <path d="M -1.30427 -4.93434 L -0.78574 -4.94334 Q -1.45 -5.01 -1.54386 -5.14319 Q -1.62 -5.26 -1.55507 -5.17523 Q -1.62 -5.26 -1.17202 -5.32161 Q -0.72 -5.39 0.23404 -5.39923 L 3.65734 -5.44124 L 3.73937 -5.32019 L 0.34039 -5.27848 Q -0.86 -5.26 -0.77325 -5.15044 Q -0.86 -5.26 -0.76713 -5.13293 Q -0.67 -4.99 0.12622 -4.95783 L 3.95311 -5.00479 L 4.03515 -4.88374 L -1.22622 -4.81918 L -1.30427 -4.93434 Z" />
    <path d="M -1.30427 0.02018 L -1.30427 -4.93434" />
    <path d="M -1.22622 0.13535 L -1.22622 -4.81918" />
    <path d="M 4.03515 -4.699 L 4.03515 -4.88374" />
    <path d="M 3.73937 -5.00217 L 3.73937 -5.32019" />
    <path d="M 4.23691 -4.48823 L 4.23691 -4.58602" />
    <path d="M -1.10206 0.31856 L -1.10206 -4.63596" />
    <path d="M -1.02002 0.43962 L -1.02002 -4.51491" />
    <path d="M 2.82146 -4.24639 L 2.82146 -4.56205" />
    <path d="M -0.80717 0.7537 L -0.80717 -4.20082" />
    <path d="M -0.72469 0.87541 L -0.72469 -4.07912" />
    <path d="M 2.76668 -3.80461 L 2.76668 -4.12196" />
    <path d="M -0.5114 1.19014 L -0.5114 -3.76438" />
    <path d="M -0.42936 1.3112 L -0.42936 -3.64333" />
    <path d="M 3.09605 1.26794 L 3.09605 -3.68659" />
    <path d="M 1.54399 -11.26559 L -4.77257 -11.18808 L -4.4666 -10.73658 L -5.23003 -10.72722 L -5.62159 -11.305 L 1.45841 -11.39188 L 1.54399 -11.26559 Z" />
    <path d="M 1.54399 -8.52611 L 1.54399 -11.26559" />
    <path d="M -5.62159 -6.35048 L -5.62159 -11.305" />
    <path d="M -5.23003 -5.77269 L -5.23003 -10.72722" />
    <path d="M -4.4666 -10.55265 L -4.4666 -10.73658" />
    <path d="M -2.72283 -6.81513 L -2.72283 -7.02758 L -2.80797 -7.15321 L 4.27203 -7.24009 L 4.35717 -7.11446 L -2.72283 -7.02758" />
    <path d="M 4.35717 -4.45142 L 4.35717 -7.11446" />
    <path d="M -2.80797 -6.81408 L -2.80797 -7.15321" />
    <path d="M 0.41767 -6.37268 Q 1.31 -6.38 1.78839 -6.44097 Q 2.27 -6.5 2.21565 -6.56788 Q 2.27 -6.5 2.20893 -6.58732 Q 2.13 -6.7 1.37265 -6.74332 L -1.14133 -6.71247 Q -1.82 -6.65 -1.75595 -6.55932 Q -1.82 -6.65 -1.74837 -6.53744 Q -1.69 -6.45 -1.14157 -6.40534 Q -0.59 -6.36 0.41767 -6.37268 Z" />
    <path d="M -2.5127 -10.54481 Q -3.39 -10.53 -3.88097 -10.47293 Q -4.37 -10.41 -4.31883 -10.34029 Q -4.37 -10.41 -4.31189 -10.32018 Q -4.25 -10.23 -3.67524 -10.1802 Q -3.1 -10.13 -2.13345 -10.14436 Q -1.27 -10.15 -0.76805 -10.21687 Q -0.27 -10.28 -0.32342 -10.35048 Q -0.27 -10.28 -0.33028 -10.37036 Q -0.39 -10.46 -0.95831 -10.50847 Q -1.53 -10.56 -2.5127 -10.54481 Z" />
    <path d="M 0.47944 -9.17554 Q 0.43 -9.25 -0.00023 -9.29369 Q -0.43 -9.34 -1.15302 -9.34156 L -0.91268 -8.98691 L -0.8446 -8.98774 Q -0.16 -9 0.18418 -9.05051 Q 0.53 -9.1 0.48609 -9.15637 Q 0.53 -9.1 0.47944 -9.17554 Z" />
    <path d="M 1.37265 -6.40463 L 1.37265 -6.74332" />
    <path d="M -1.14133 -6.40532 L -1.14133 -6.71247" />
    <path d="M -2.45779 -1.53726 L -2.45779 -6.49179" />
    <path d="M -1.58784 -6.02826 L -1.58784 -6.30057" />
    <path d="M 0.3976 -5.8378 L 0.3976 -6.25038" />
    <path d="M 0.48026 -5.91179 L 0.48026 -6.25139" />
    <path d="M 2.41875 -6.10226 L 2.41875 -6.35006" />
    <path d="M -5.04615 -5.35665 L -5.04615 -10.31117" />
    <path d="M -4.59113 -9.83907 L -4.59113 -10.1462" />
    <path d="M -3.56377 -9.85168 L -3.56377 -10.04467" />
    <path d="M -2.15839 -9.86893 L -2.15839 -10.022" />
    <path d="M -2.09517 -9.8697 L -2.09517 -10.02277" />
    <path d="M -0.17661 -9.89324 L -0.17661 -10.13637" />
    <path d="M 0.05193 -9.41775 L 0.05193 -9.61102" />
    <path d="M -4.22711 -6.79667 L -4.22711 -9.1026" />
    <path d="M -3.11034 -8.98009 L -3.11034 -9.25981" />
    <path d="M -1.19534 -8.72085 L -1.19534 -8.86138" />
    <path d="M 0.6881 -8.74396 L 0.6881 -8.96169" />
    <path d="M 0.93936 -8.41483 L 0.93936 -8.4607" />
    <path d="M 0.86026 -7.88489 L 0.86026 -8.13247" />
    <path d="M 1.23514 -7.97157 L 1.23514 -8.02425" />
    <path d="M -1.07339 -5.72415 L -1.07339 -5.93575" />
    <path d="M -1.99129 -0.8489 L -1.99129 -5.80342" />
    <path d="M -1.43234 -5.26668 L -1.43234 -5.61168" />
    <path d="M -0.25034 -5.38853 L -0.25034 -5.54965" />
    <path d="M 0.4485 -5.40186 L 0.4485 -5.58561" />
    <path d="M 0.89524 -5.40734 L 0.89524 -5.67522" />
    <path d="M 1.15553 -5.41054 L 1.15553 -5.82653" />
    <path d="M 1.38668 -5.41337 L 1.38668 -5.95572" />
    <path d="M 1.8543 -5.41911 L 1.8543 -5.99642" />
    <path d="M 2.43878 -5.7408 L 2.43878 -5.96599" />
    <path d="M 2.7228 -5.82751 L 2.7228 -5.86523" />
    <path d="M 3.13234 -5.4348 L 3.13234 -5.67331" />
    <path d="M 0.34039 -4.96046 L 0.34039 -5.27848" />
    <path d="M -1.54386 -0.18867 L -1.54386 -5.14319" />
    <path d="M 3.68558 -4.3625 L 3.68558 -4.40837" />
    <path d="M 3.60648 -3.83256 L 3.60648 -4.08014" />
    <path d="M 3.98136 -3.91924 L 3.98136 -3.97192" />
    <path d="M 2.20893 -6.54922 L 2.20893 -6.58732" />
    <path d="M -3.88097 -10.20066 L -3.88097 -10.47293" />
    <path d="M -2.5127 -10.142 L -2.5127 -10.54481" />
    <path d="M -0.33028 -10.33133 L -0.33028 -10.37036" />
    <path d="M -0.95831 -10.19639 L -0.95831 -10.50847" />
    <path d="M -0.00023 -9.0291 L -0.00023 -9.29369" />
    <path d="M 0.47944 -9.1381 L 0.47944 -9.17554" />
    <path d="M -2.46962 -1.5713 L -2.46962 -6.52583" />
    <path d="M 3.00671 -6.03886 L 3.00671 -6.53191" />
    <path d="M -5.05833 -5.3919 L -5.05833 -10.34642" />
    <path d="M 0.42113 -9.90058 L 0.42113 -10.34389" />
    <path d="M 0.93354 -9.30391 L 0.93354 -9.59602" />
    <path d="M -4.23999 -6.79651 L -4.23999 -9.13983" />
    <path d="M 1.23076 -8.75062 L 1.23076 -9.14951" />
    <path d="M 2.03505 -7.21264 L 2.03505 -7.9626" />
    <path d="M 1.74364 -8.1198 L 1.74364 -8.39441" />
    <path d="M -2.00532 -0.88928 L -2.00532 -5.8438" />
    <path d="M 3.47543 -5.43901 L 3.47543 -5.83552" />
    <path d="M -1.55507 -0.22071 L -1.55507 -5.17523" />
    <path d="M 4.48986 -4.06747 L 4.48986 -4.34208" />
</svg>